<svg width="16" height="16" viewBox="0 0 16 16" xmlns="http://www.w3.org/2000/svg">
    <path d="M15.0709 7.10088C15.217 6.43739 15.0979 5.79605 14.79 5.25547C14.8824 4.55621 14.6643 3.83267 14.2481 3.29287C14.2183 1.65497 13.1287 0.5 10.7188 0.5C10.5 0.5 10.25 0.500293 10.0244 0.500293C6.78734 0.500293 5.78116 1.67187 4.5 1.67187H4.16109C3.98484 1.52612 3.75353 1.4375 3.5 1.4375H1.5C0.947719 1.4375 0.5 1.85724 0.5 2.375V9.40625C0.5 9.92401 0.947719 10.3438 1.5 10.3438H3.5C3.87006 10.3438 4.19297 10.1551 4.36588 9.875H4.58625C5.18456 10.3717 6.02416 11.6519 6.735 12.3184C7.16209 12.7188 7.05228 15.5 8.9775 15.5C10.7769 15.5 11.9547 14.5644 11.9547 12.4317C11.9547 11.8924 11.8319 11.4436 11.6781 11.0683H12.8181C14.3369 11.0683 15.5 9.85054 15.5 8.56103C15.5 8 15.345 7.53594 15.0709 7.10088ZM2.5 9.17187C2.08578 9.17187 1.75 8.85708 1.75 8.46875C1.75 8.08042 2.08578 7.76562 2.5 7.76562C2.91422 7.76562 3.25 8.08042 3.25 8.46875C3.25 8.85708 2.91422 9.17187 2.5 9.17187ZM12.8181 9.66201H9.56844C9.56844 10.77 10.4547 11.2842 10.4547 12.4317C10.4547 13.1275 10.4547 14.0938 8.9775 14.0938C8.38656 13.5397 8.68188 12.1549 7.79563 11.324C6.96563 10.5456 5.7275 8.46875 4.84125 8.46875H4.5V3.01455C6.17534 3.01455 7.62503 1.90654 9.86375 1.90654H11.0456C12.1554 1.90654 12.9462 2.40811 12.7056 3.83721C13.1806 4.07627 13.5337 4.90479 13.1412 5.52383C13.8157 6.12102 13.7256 7.01987 13.3041 7.44629C13.5994 7.44629 14.0028 8.00029 14 8.554C13.9972 9.10801 13.4778 9.66201 12.8181 9.66201Z" fill="current"/>
</svg>
