<svg width="15" height="16" viewBox="0 0 15 16" xmlns="http://www.w3.org/2000/svg">
    <path d="M14.5709 8.89912C14.845 8.46406 15 8 15 7.43896C15 6.14946 13.8369 4.93174 12.3181 4.93174H11.1781C11.3319 4.55645 11.4547 4.10762 11.4547 3.56826C11.4547 1.43563 10.2769 0.5 8.4775 0.5C6.55228 0.5 6.66209 3.28124 6.235 3.68164C5.52416 4.34806 4.68453 5.62833 4.08625 6.125H1C0.447719 6.125 0 6.54474 0 7.0625V14.0938C0 14.6115 0.447719 15.0312 1 15.0312H3C3.46541 15.0312 3.8565 14.7332 3.96806 14.3296C5.35897 14.3589 6.31369 15.4997 9.52437 15.4997C9.75 15.4997 10 15.5 10.2188 15.5C12.6287 15.5 13.7183 14.345 13.7481 12.7071C14.1643 12.1673 14.3825 11.4438 14.29 10.7445C14.5979 10.2039 14.717 9.56261 14.5709 8.89912ZM12.6412 10.4762C13.0337 11.0952 12.6806 11.9237 12.2056 12.1628C12.4462 13.5919 11.6554 14.0935 10.5456 14.0935H9.36375C7.12503 14.0935 5.67534 12.9854 4 12.9854V7.53125H4.34125C5.2275 7.53125 6.46563 5.45439 7.29563 4.67598C8.18188 3.84512 7.88656 2.46025 8.4775 1.90625C9.95469 1.90625 9.95469 2.87246 9.95469 3.56826C9.95469 4.71582 9.06844 5.22998 9.06844 6.33799H12.3181C12.9778 6.33799 13.4972 6.89199 13.5 7.446C13.5028 7.99971 13.0994 8.55371 12.8041 8.55371C13.2256 8.98013 13.3157 9.87898 12.6412 10.4762ZM2.75 13.1562C2.75 13.5446 2.41422 13.8594 2 13.8594C1.58578 13.8594 1.25 13.5446 1.25 13.1562C1.25 12.7679 1.58578 12.4531 2 12.4531C2.41422 12.4531 2.75 12.7679 2.75 13.1562Z" fill="current"/>
</svg>
