<svg viewBox="0 0 99 192" fill="#760023" xmlns="http://www.w3.org/2000/svg">
    <path d="M50.3145 14.8358C50.0964 14.6272 49.8062 14.5107 49.5044 14.5107C49.2026 14.5107 48.9124 14.6272 48.6943 14.8358L21.7266 40.598C21.612 40.7076 21.5209 40.8392 21.4587 40.985C21.3965 41.1308 21.3646 41.2877 21.3647 41.4462L21.3604 65.6249C21.3604 66.8681 21.8542 68.0603 22.7333 68.9394C23.6124 69.8185 24.8046 70.3124 26.0479 70.3124H40.125C40.7466 70.3124 41.3427 70.0654 41.7823 69.6259C42.2218 69.1864 42.4687 68.5902 42.4687 67.9686V48.0467C42.4687 47.7359 42.5922 47.4379 42.812 47.2181C43.0318 46.9983 43.3298 46.8749 43.6406 46.8749H55.3594C55.6702 46.8749 55.9682 46.9983 56.188 47.2181C56.4078 47.4379 56.5312 47.7359 56.5312 48.0467V67.9686C56.5312 68.5902 56.7782 69.1864 57.2177 69.6259C57.6573 70.0654 58.2534 70.3124 58.875 70.3124H72.9463C74.1895 70.3124 75.3818 69.8185 76.2608 68.9394C77.1399 68.0603 77.6338 66.8681 77.6338 65.6249V41.4462C77.634 41.2877 77.602 41.1308 77.5398 40.985C77.4776 40.8392 77.3865 40.7076 77.272 40.598L50.3145 14.8358Z" fill="#FFFBFB"/>
    <path d="M83.9107 35.7642L72.9537 25.2817V9.375C72.9537 8.7534 72.7067 8.15726 72.2672 7.71772C71.8277 7.27818 71.2315 7.03125 70.6099 7.03125H63.5787C62.9571 7.03125 62.3609 7.27818 61.9214 7.71772C61.4818 8.15726 61.2349 8.7534 61.2349 9.375V14.0625L52.7505 5.9502C51.9566 5.14746 50.7759 4.6875 49.5001 4.6875C48.2286 4.6875 47.0508 5.14746 46.2569 5.95166L15.0997 35.7612C14.1885 36.6401 14.0743 38.0859 14.9034 39.0381C15.1116 39.2784 15.3665 39.4739 15.6526 39.6126C15.9388 39.7512 16.2501 39.8303 16.5678 39.8448C16.8854 39.8593 17.2027 39.809 17.5003 39.6971C17.7979 39.5851 18.0696 39.4137 18.2989 39.1934L48.6944 10.1484C48.9125 9.93982 49.2026 9.82338 49.5045 9.82338C49.8063 9.82338 50.0964 9.93982 50.3145 10.1484L80.7129 39.1934C81.1607 39.6228 81.7605 39.8571 82.3808 39.845C83.0011 39.833 83.5913 39.5754 84.022 39.1289C84.9214 38.1973 84.8467 36.6592 83.9107 35.7642Z" fill="#FFFBFB"/>
    <rect x="40.125" y="34.6875" width="18.75" height="35.625" fill="#760023"/>
    <path d="M39.557 70.4415L60.038 70.306C61.6562 70.2953 62.9563 68.854 62.9446 67.0838L62.7328 35.0779C62.7212 33.3152 61.402 31.8837 59.7838 31.8944L39.3029 32.0299C37.6915 32.0406 36.3845 33.482 36.3962 35.2521L36.608 67.258C36.6266 69.0282 37.9457 70.4521 39.557 70.4415ZM52.489 35.1532L51.1026 46.3615L48.1748 46.3809L46.6402 35.1919L52.489 35.1532ZM45.3491 60.8017L49.7374 60.7727L49.7162 57.5699L45.3279 57.5989L45.3067 54.3961L49.695 54.367L49.6739 51.1717L45.2856 51.2007L45.2644 47.9979L49.6527 47.9688L49.6739 51.1717L54.0622 51.1427L54.0833 54.3455L49.6951 54.3745L49.7162 57.5774L54.1045 57.5483L54.1257 60.7437L49.7374 60.7727L49.7586 63.9755L54.1469 63.9465L54.168 67.1418L49.7797 67.1709L49.7585 63.968L45.3702 63.9971L45.3491 60.8017ZM50.3266 39.9682L51.0391 36.7605L48.1113 36.7799L48.8661 39.9779L50.3266 39.9682Z" fill="white"/>
    <path d="M18.3647 115.66H12.3345C12.0171 118.009 11.4775 119.871 10.7158 121.246L4.52686 120.865C3.57471 119.215 3.09863 116.655 3.09863 113.185C3.09863 111.746 3.24674 110.402 3.54297 109.154H35.2178L35.8525 114.295L17 142.574C15.8151 144.394 14.5985 145.822 13.3501 146.859L12.6519 147.367L12.9692 148.097C14.9159 147.695 17.0423 147.494 19.3486 147.494H27.2832C27.5583 145.145 28.0978 143.283 28.9019 141.908L35.0908 142.289C36.043 143.939 36.519 146.499 36.519 149.969C36.519 151.45 36.3604 152.794 36.043 154H2.49561L1.86084 148.858L20.7134 120.58C21.8983 118.76 23.1361 117.332 24.4268 116.295L25.0615 115.787L24.7441 115.057C22.7975 115.459 20.6711 115.66 18.3647 115.66ZM40.042 114.549L40.6768 109.154H55.9111L56.5459 114.549C55.8477 115.375 54.6628 116.104 52.9912 116.739V146.446C54.6628 147.123 55.8477 147.843 56.5459 148.604L55.9111 154H40.6768L40.042 148.604C40.6133 147.864 41.8088 147.145 43.6284 146.446V116.739C41.8299 116.104 40.6344 115.375 40.042 114.549ZM76.6045 138.385H73.6846V146.065C76.8161 146.764 78.7839 147.61 79.5879 148.604L78.9214 154H61.3701L60.7354 148.604C61.3066 147.864 62.5021 147.145 64.3218 146.446V116.739C62.5233 116.104 61.3278 115.375 60.7354 114.549L61.3701 109.154H78.604C82.6242 109.196 85.9567 109.683 88.6016 110.614C91.2676 111.524 93.2565 113.026 94.5684 115.121C95.8802 117.215 96.5361 120.061 96.5361 123.658C96.5361 133.476 89.8923 138.385 76.6045 138.385ZM77.5566 116.231H73.6846V131.307H78.0327C80.9738 131.307 83.1637 130.725 84.6025 129.562C86.0625 128.377 86.7925 126.345 86.7925 123.468C86.7925 120.569 85.999 118.644 84.4121 117.691C82.8464 116.718 80.5612 116.231 77.5566 116.231Z" fill="white"/>
</svg>
