<svg width="55" height="55" viewBox="0 0 55 55" fill="none" xmlns="http://www.w3.org/2000/svg">
    <path fill-rule="evenodd" clip-rule="evenodd" d="M18.3333 16.0417C18.3333 13.6105 19.2991 11.2789 21.0182 9.55985C22.7373 7.84077 25.0688 6.875 27.5 6.875C29.9312 6.875 32.2627 7.84077 33.9818 9.55985C35.7009 11.2789 36.6667 13.6105 36.6667 16.0417C36.6667 18.4728 35.7009 20.8044 33.9818 22.5235C32.2627 24.2426 29.9312 25.2083 27.5 25.2083C25.0688 25.2083 22.7373 24.2426 21.0182 22.5235C19.2991 20.8044 18.3333 18.4728 18.3333 16.0417ZM18.3333 29.7917C15.2944 29.7917 12.3799 30.9989 10.2311 33.1477C8.08221 35.2966 6.875 38.2111 6.875 41.25C6.875 43.0734 7.59933 44.822 8.88864 46.1114C10.178 47.4007 11.9266 48.125 13.75 48.125H41.25C43.0734 48.125 44.822 47.4007 46.1114 46.1114C47.4007 44.822 48.125 43.0734 48.125 41.25C48.125 38.2111 46.9178 35.2966 44.7689 33.1477C42.6201 30.9989 39.7056 29.7917 36.6667 29.7917H18.3333Z" fill="white"/>
</svg>
