<svg width="49" height="76" viewBox="0 0 49 76" fill="current" xmlns="http://www.w3.org/2000/svg">
<path fill-rule="evenodd" clip-rule="evenodd" d="M3.96875 22.1125C2.19375 22.1125 0.75625 20.6312 1.03125 18.8812C2.75 8.25 10.85 0.5 24.9062 0.5C38.9687 0.5 48.45 9 48.45 20.5938C48.45 28.9938 44.2938 34.8937 37.2625 39.175C30.3875 43.2937 28.425 46.1625 28.425 51.7375V51.925C28.425 52.7538 28.0958 53.5487 27.5097 54.1347C26.9237 54.7208 26.1288 55.05 25.3 55.05H20.4875C19.6641 55.05 18.8739 54.7251 18.2888 54.1458C17.7036 53.5665 17.3707 52.7796 17.3625 51.9562L17.3437 50.7062C17.075 43.075 20.325 38.2 27.625 33.7563C34.0625 29.8063 36.3562 26.6625 36.3562 21.0813C36.3562 14.9625 31.6187 10.4688 24.3187 10.4688C18.0125 10.4688 13.6313 13.775 12.2063 19.2313C11.7938 20.8188 10.4687 22.1125 8.83125 22.1125H3.96875ZM22.85 75.5C26.7375 75.5 29.6937 72.5375 29.6937 68.6875C29.6937 64.825 26.7375 61.8625 22.85 61.8625C19.0625 61.8625 16.0562 64.825 16.0562 68.6813C16.0562 72.5375 19.0625 75.5 22.85 75.5Z" fill="white"/>
</svg>
