<svg width="30" height="30" viewBox="0 0 26 25" fill="none" xmlns="http://www.w3.org/2000/svg">
    <path d="M13.2715 4.94527C13.1988 4.87573 13.1021 4.83691 13.0015 4.83691C12.9009 4.83691 12.8041 4.87573 12.7314 4.94527L3.74219 13.5327C3.70401 13.5692 3.67364 13.6131 3.65291 13.6617C3.63218 13.7103 3.62152 13.7626 3.62158 13.8154L3.62012 21.875C3.62012 22.2894 3.78474 22.6868 4.07776 22.9798C4.37079 23.2728 4.76822 23.4375 5.18262 23.4375H9.875C10.0822 23.4375 10.2809 23.3551 10.4274 23.2086C10.5739 23.0621 10.6563 22.8634 10.6563 22.6562V16.0156C10.6563 15.912 10.6974 15.8126 10.7707 15.7394C10.8439 15.6661 10.9433 15.625 11.0469 15.625H14.9531C15.0567 15.625 15.1561 15.6661 15.2293 15.7394C15.3026 15.8126 15.3438 15.912 15.3438 16.0156V22.6562C15.3438 22.8634 15.4261 23.0621 15.5726 23.2086C15.7191 23.3551 15.9178 23.4375 16.125 23.4375H20.8154C21.2298 23.4375 21.6273 23.2728 21.9203 22.9798C22.2133 22.6868 22.3779 22.2894 22.3779 21.875V13.8154C22.378 13.7626 22.3673 13.7103 22.3466 13.6617C22.3259 13.6131 22.2955 13.5692 22.2573 13.5327L13.2715 4.94527Z" fill="#f44366"/>
    <path d="M24.4702 11.9214L20.8179 8.42725V3.125C20.8179 2.9178 20.7356 2.71909 20.5891 2.57257C20.4426 2.42606 20.2438 2.34375 20.0366 2.34375H17.6929C17.4857 2.34375 17.287 2.42606 17.1405 2.57257C16.994 2.71909 16.9116 2.9178 16.9116 3.125V4.6875L14.0835 1.9834C13.8189 1.71582 13.4253 1.5625 13 1.5625C12.5762 1.5625 12.1836 1.71582 11.919 1.98389L1.53322 11.9204C1.22951 12.2134 1.19142 12.6953 1.46779 13.0127C1.53719 13.0928 1.62217 13.158 1.71755 13.2042C1.81293 13.2504 1.91672 13.2768 2.0226 13.2816C2.12848 13.2864 2.23424 13.2697 2.33344 13.2324C2.43264 13.195 2.52321 13.1379 2.59963 13.0645L12.7315 3.38281C12.8042 3.31327 12.9009 3.27446 13.0015 3.27446C13.1021 3.27446 13.1988 3.31327 13.2715 3.38281L23.4043 13.0645C23.5536 13.2076 23.7535 13.2857 23.9603 13.2817C24.167 13.2777 24.3638 13.1918 24.5073 13.043C24.8071 12.7324 24.7822 12.2197 24.4702 11.9214Z" fill="#f44366"/>
    <rect x="9.875" y="11.5625" width="6.25" height="11.875" fill="white"/>
    <path d="M9.68583 23.4803L16.5128 23.4352C17.0522 23.4316 17.4856 22.9512 17.4817 22.3611L17.4111 11.6925C17.4072 11.1049 16.9675 10.6277 16.4281 10.6313L9.60112 10.6765C9.06401 10.68 8.62834 11.1605 8.63224 11.7506L8.70282 22.4192C8.70901 23.0092 9.14872 23.4839 9.68583 23.4803ZM13.9965 11.7176L13.5344 15.4537L12.5584 15.4601L12.0469 11.7305L13.9965 11.7176ZM11.6165 20.2671L13.0793 20.2574L13.0722 19.1898L11.6095 19.1995L11.6024 18.1319L13.0652 18.1222L13.0581 17.0571L11.5954 17.0667L11.5883 15.9991L13.0511 15.9895L13.0581 17.0571L14.5209 17.0474L14.5279 18.115L13.0652 18.1247L13.0722 19.1923L14.535 19.1826L14.5421 20.2477L13.0793 20.2574L13.0864 21.325L14.5491 21.3153L14.5562 22.3804L13.0934 22.3901L13.0863 21.3225L11.6236 21.3322L11.6165 20.2671ZM13.2757 13.3226L13.5132 12.2533L12.5372 12.2598L12.7889 13.3258L13.2757 13.3226Z" fill="#f44366"/>
</svg>
