<svg width="43" height="43" viewBox="0 0 43 43" fill="none" xmlns="http://www.w3.org/2000/svg">
    <path d="M38.9167 42.125L24.4792 27.6875C23.3333 28.6042 22.0156 29.3299 20.526 29.8646C19.0365 30.3993 17.4514 30.6667 15.7708 30.6667C11.6076 30.6667 8.08458 29.2244 5.20167 26.34C2.31875 23.4556 0.876528 19.9325 0.875 15.7708C0.875 11.6076 2.31722 8.08458 5.20167 5.20167C8.08611 2.31875 11.6092 0.876528 15.7708 0.875C19.934 0.875 23.4571 2.31722 26.34 5.20167C29.2229 8.08611 30.6651 11.6092 30.6667 15.7708C30.6667 17.4514 30.3993 19.0365 29.8646 20.526C29.3299 22.0156 28.6042 23.3333 27.6875 24.4792L42.125 38.9167L38.9167 42.125ZM15.7708 26.0833C18.6354 26.0833 21.0707 25.0803 23.0767 23.0744C25.0826 21.0684 26.0849 18.6339 26.0833 15.7708C26.0833 12.9062 25.0803 10.471 23.0744 8.465C21.0684 6.45903 18.6339 5.45681 15.7708 5.45833C12.9062 5.45833 10.471 6.46132 8.465 8.46729C6.45903 10.4733 5.45681 12.9078 5.45833 15.7708C5.45833 18.6354 6.46132 21.0707 8.46729 23.0767C10.4733 25.0826 12.9078 26.0849 15.7708 26.0833Z" fill="white"/>
</svg>
