<svg width="55" height="55" viewBox="0 0 55 55" fill="none" xmlns="http://www.w3.org/2000/svg">
    <path d="M39.0538 22.4438C38.8908 22.3122 38.6877 22.2405 38.4782 22.2405C38.2687 22.2405 38.0655 22.3122 37.9025 22.4438L29.6708 29.0731C29.5652 29.1583 29.48 29.2661 29.4216 29.3885C29.3632 29.511 29.3331 29.6451 29.3335 29.7808V46.7391C29.3335 46.9851 29.4312 47.2211 29.6052 47.3951C29.7792 47.569 30.0151 47.6668 30.2612 47.6668H35.7392C35.9852 47.6668 36.2212 47.569 36.3951 47.3951C36.5691 47.2211 36.6668 46.9851 36.6668 46.7391V40.3334H40.3335V46.7391C40.3335 46.9851 40.4312 47.2211 40.6052 47.3951C40.7792 47.569 41.0151 47.6668 41.2612 47.6668H46.7392C46.9852 47.6668 47.2212 47.569 47.3951 47.3951C47.5691 47.2211 47.6668 46.9851 47.6668 46.7391V29.7734C47.6694 29.633 47.6397 29.4938 47.5799 29.3666C47.5202 29.2395 47.432 29.1278 47.3222 29.0401L39.0538 22.4438ZM36.6668 36.6668H33.0002V33.0001H36.6668V36.6668ZM44.0002 36.6668H40.3335V33.0001H44.0002V36.6668ZM20.9368 2.98844C20.8526 2.86137 20.7381 2.75714 20.6038 2.68503C20.4694 2.61293 20.3193 2.5752 20.1668 2.5752C20.0144 2.5752 19.8643 2.61293 19.7299 2.68503C19.5955 2.75714 19.4811 2.86137 19.3968 2.98844L7.4875 18.0988C7.38658 18.2509 7.333 18.4295 7.3335 18.6121V46.7391C7.33302 46.8604 7.35644 46.9807 7.40243 47.093C7.44842 47.2053 7.51608 47.3074 7.60154 47.3935C7.687 47.4797 7.78859 47.5482 7.90051 47.595C8.01244 47.6419 8.13249 47.6663 8.25384 47.6668H17.4205C17.6637 47.6639 17.8959 47.5652 18.0668 47.3923C18.2377 47.2193 18.3335 46.9859 18.3335 46.7428V40.3334H22.0002V46.7428C22.0002 46.9878 22.0975 47.2229 22.2708 47.3961C22.4441 47.5694 22.6791 47.6668 22.9242 47.6668H25.6668V25.6668C25.6667 25.3914 25.7286 25.1195 25.8479 24.8713C25.9672 24.6231 26.141 24.405 26.3562 24.2331L33.0002 18.3334C33.0002 18.1501 20.9368 2.98844 20.9368 2.98844ZM14.6668 33.0001H11.0002V29.3334H14.6668V33.0001ZM14.6668 22.0001H11.0002V18.3334H14.6668V22.0001ZM22.0002 33.0001H18.3335V29.3334H22.0002V33.0001ZM22.0002 22.0001H18.3335V18.3334H22.0002V22.0001Z" fill="white"/>
</svg>
