<svg width="45" height="45" viewBox="0 0 45 45" fill="none" xmlns="http://www.w3.org/2000/svg">
    <path d="M43.4442 11.1549L33.8449 1.55357C33.4459 1.15439 32.9722 0.837727 32.4507 0.62168C31.9293 0.405633 31.3704 0.294434 30.806 0.294434C30.2416 0.294434 29.6827 0.405633 29.1612 0.62168C28.6398 0.837727 28.166 1.15439 27.767 1.55357L1.27463 28.0481C0.874163 28.4459 0.556666 28.9193 0.340549 29.4408C0.124433 29.9623 0.0139958 30.5215 0.0156432 31.086V40.6874C0.0156432 41.827 0.468348 42.9199 1.27417 43.7257C2.07999 44.5315 3.17292 44.9842 4.31252 44.9842H13.9139C14.4784 44.9858 15.0375 44.8753 15.559 44.6592C16.0805 44.4431 16.5539 44.1256 16.9518 43.7253L43.4442 17.2307C44.2497 16.4249 44.7022 15.3322 44.7022 14.1928C44.7022 13.0535 44.2497 11.9607 43.4442 11.1549ZM13.9805 34.6717L29.2344 19.4178L31.5977 21.7811L16.3438 37.035L13.9805 34.6717ZM10.3281 31.0194L7.96486 28.6561L23.2188 13.4022L25.5821 15.7655L10.3281 31.0194ZM5.17189 33.1678L8.50412 36.5001L11.8321 39.828H5.17189V33.1678ZM35.25 18.1288L26.8711 9.74986L30.8113 5.80963L39.1903 14.1885L35.25 18.1288Z" fill="white"/>
</svg>
