<svg width="4vw"  viewBox="0 0 94 57" fill="none" xmlns="http://www.w3.org/2000/svg">
<path d="M25.392 8.1H33.05V20.25H16.6733L21.0908 10.6439C21.7883 9.1125 23.4884 8.1 25.392 8.1ZM40.025 20.25V8.1H51.8244C53.2339 8.1 54.5708 8.65688 55.4572 9.61875L65.2222 20.25H40.025ZM77.2541 20.3766L62.7228 4.55625C60.0781 1.67063 56.0675 0 51.8244 0H25.392C19.6813 0 14.5517 3.02484 12.4447 7.63172L6.39969 20.8069C2.94125 21.9966 0.5 24.9202 0.5 28.35V42.525C0.5 44.7652 2.57797 46.575 5.15 46.575H9.98891C11.0933 52.3209 16.8331 56.7 23.75 56.7C30.6669 56.7 36.4067 52.3209 37.5111 46.575H56.4889C57.5933 52.3209 63.3331 56.7 70.25 56.7C77.1669 56.7 82.9067 52.3209 84.0111 46.575H88.85C91.422 46.575 93.5 44.7652 93.5 42.525V36.45C93.5 28.1981 86.4088 21.3891 77.2541 20.3766ZM63.6673 42.525C63.9634 41.7626 64.4304 41.059 65.0412 40.4551C65.6521 39.8512 66.3946 39.3591 67.2257 39.0073C68.0568 38.6554 68.9599 38.451 69.8825 38.4057C70.8051 38.3604 71.7288 38.4753 72.6 38.7436C73.4712 39.0119 74.2725 39.4283 74.9574 39.9686C75.6422 40.5089 76.197 41.1624 76.5895 41.891C76.9819 42.6196 77.2042 43.4089 77.2435 44.213C77.2827 45.0171 77.1382 45.82 76.8181 46.575C76.5221 47.3374 76.0551 48.041 75.4443 48.6449C74.8334 49.2488 74.0908 49.7409 73.2598 50.0927C72.4287 50.4446 71.5256 50.649 70.603 50.6943C69.6804 50.7396 68.7567 50.6247 67.8855 50.3564C67.0143 50.0881 66.213 49.6717 65.5281 49.1314C64.8432 48.5911 64.2885 47.9376 63.896 47.209C63.5036 46.4804 63.2812 45.6911 63.242 44.887C63.2027 44.0829 63.3473 43.28 63.6673 42.525ZM23.75 38.475C25.5999 38.475 27.374 39.115 28.6821 40.2543C29.9901 41.3936 30.725 42.9388 30.725 44.55C30.725 46.1612 29.9901 47.7064 28.6821 48.8457C27.374 49.985 25.5999 50.625 23.75 50.625C21.9001 50.625 20.126 49.985 18.8179 48.8457C17.5099 47.7064 16.775 46.1612 16.775 44.55C16.775 42.9388 17.5099 41.3936 18.8179 40.2543C20.126 39.115 21.9001 38.475 23.75 38.475Z" fill="#760023"/>
</svg>
