<svg xmlns="http://www.w3.org/2000/svg" width="1vw" height="auto" viewBox="0 0 25 25" fill="none">
  <path d="M24.2849 11.0015C24.5283 9.89565 24.3299 8.82676 23.8167 7.92578C23.9707 6.76035 23.6072 5.55444 22.9135 4.65479C22.8639 1.92495 21.0478 0 17.0312 0C16.6667 0 16.25 0.000488281 15.874 0.000488281C10.4789 0.000488281 8.80193 1.95312 6.66667 1.95312H6.10182C5.80807 1.7102 5.42255 1.5625 5 1.5625H1.66667C0.746198 1.5625 0 2.26206 0 3.125V14.8437C0 15.7067 0.746198 16.4062 1.66667 16.4062H5C5.61677 16.4062 6.15495 16.0919 6.44312 15.625H6.81042C7.8076 16.4528 9.20693 18.5866 10.3917 19.6973C11.1035 20.3646 10.9205 25 14.1292 25C17.1281 25 19.0911 23.4406 19.0911 19.8862C19.0911 18.9873 18.8865 18.2393 18.6302 17.6138H20.5302C23.0616 17.6138 25 15.5842 25 13.4351C25 12.5 24.7417 11.7266 24.2849 11.0015ZM3.33333 14.4531C2.64297 14.4531 2.08333 13.9285 2.08333 13.2812C2.08333 12.634 2.64297 12.1094 3.33333 12.1094C4.0237 12.1094 4.58333 12.634 4.58333 13.2812C4.58333 13.9285 4.0237 14.4531 3.33333 14.4531ZM20.5302 15.27H15.1141C15.1141 17.1167 16.5911 17.9736 16.5911 19.8862C16.5911 21.0459 16.5911 22.6562 14.1292 22.6562C13.1443 21.7329 13.6365 19.4248 12.1594 18.04C10.776 16.7427 8.7125 13.2812 7.23542 13.2812H6.66667V4.19092C9.45891 4.19092 11.8751 2.34424 15.6063 2.34424H17.576C19.4256 2.34424 20.7437 3.18018 20.3427 5.56201C21.1344 5.96045 21.7229 7.34131 21.0687 8.37305C22.1928 9.36836 22.0427 10.8665 21.3401 11.5771C21.8323 11.5771 22.5047 12.5005 22.5 13.4233C22.4953 14.3467 21.6297 15.27 20.5302 15.27Z" fill="black"/>
</svg>