<svg xmlns="http://www.w3.org/2000/svg" width="1vw" height="auto" viewBox="0 0 26 25" fill="none">
  <path d="M24.7849 13.9985C25.2417 13.2734 25.5 12.5 25.5 11.5649C25.5 9.41577 23.5616 7.38623 21.0302 7.38623H19.1302C19.3865 6.76074 19.5911 6.0127 19.5911 5.11377C19.5911 1.55938 17.6281 0 14.6292 0C11.4205 0 11.6035 4.6354 10.8917 5.30273C9.70693 6.41343 8.30755 8.54722 7.31042 9.375H2.16667C1.2462 9.375 0.5 10.0746 0.5 10.9375V22.6562C0.5 23.5192 1.2462 24.2188 2.16667 24.2188H5.5C6.27568 24.2188 6.9275 23.722 7.11344 23.0493C9.43161 23.0982 11.0228 24.9995 16.374 24.9995C16.75 24.9995 17.1667 25 17.5312 25C21.5478 25 23.3639 23.0751 23.4135 20.3452C24.1072 19.4456 24.4708 18.2396 24.3167 17.0742C24.8299 16.1732 25.0283 15.1043 24.7849 13.9985ZM21.5687 16.627C22.2229 17.6587 21.6344 19.0396 20.8427 19.438C21.2437 21.8198 19.9256 22.6558 18.076 22.6558H16.1063C12.3751 22.6558 9.95891 20.8091 7.16667 20.8091V11.7188H7.73542C9.2125 11.7188 11.276 8.25732 12.6594 6.95996C14.1365 5.57519 13.6443 3.26709 14.6292 2.34375C17.0911 2.34375 17.0911 3.9541 17.0911 5.11377C17.0911 7.02637 15.6141 7.8833 15.6141 9.72998H21.0302C22.1297 9.72998 22.9953 10.6533 23 11.5767C23.0047 12.4995 22.3323 13.4229 21.8401 13.4229C22.5427 14.1335 22.6928 15.6316 21.5687 16.627ZM5.08333 21.0938C5.08333 21.741 4.5237 22.2656 3.83333 22.2656C3.14297 22.2656 2.58333 21.741 2.58333 21.0938C2.58333 20.4465 3.14297 19.9219 3.83333 19.9219C4.5237 19.9219 5.08333 20.4465 5.08333 21.0938Z" fill="current"/>
</svg>